M48
; DRILL file {KiCad 9.0.3} date 2025-08-14T11:07:08+0200
; FORMAT={-:-/ absolute / metric / decimal}
; #@! TF.CreationDate,2025-08-14T11:07:08+02:00
; #@! TF.GenerationSoftware,Kicad,Pcbnew,9.0.3
; #@! TF.FileFunction,Plated,1,2,PTH
FMAT,2
METRIC
; #@! TA.AperFunction,Plated,PTH,ComponentDrill
T1C0.800
; #@! TA.AperFunction,Plated,PTH,ComponentDrill
T2C1.000
%
G90
G05
T1
X72.5Y-55.5
X72.5Y-58.04
X72.5Y-60.58
X72.5Y-63.12
X72.5Y-65.66
X72.5Y-68.2
X72.5Y-70.74
X72.5Y-73.28
X72.5Y-75.82
X72.5Y-78.36
X72.5Y-80.9
X72.5Y-83.44
X72.5Y-85.98
X72.5Y-88.52
X72.5Y-91.06
X97.9Y-55.5
X97.9Y-58.04
X97.9Y-60.58
X97.9Y-63.12
X97.9Y-65.66
X97.9Y-68.2
X97.9Y-70.74
X97.9Y-73.28
X97.9Y-75.82
X97.9Y-78.36
X97.9Y-80.9
X97.9Y-83.44
X97.9Y-85.98
X97.9Y-88.52
X97.9Y-91.06
X121.64Y-53.11
X121.64Y-55.65
X121.64Y-58.19
X121.64Y-60.73
X121.64Y-63.27
X121.64Y-65.81
X121.64Y-68.35
X121.64Y-70.89
X134.34Y-53.11
X134.34Y-55.65
X134.34Y-58.19
X134.34Y-60.73
X134.34Y-63.27
X134.34Y-65.81
X134.34Y-68.35
X134.34Y-70.89
X143.0Y-59.0
X143.0Y-61.0
X143.0Y-63.0
X143.0Y-65.0
X143.0Y-87.0
X143.0Y-89.0
X143.0Y-91.0
X143.0Y-93.0
T2
X54.4Y-69.5
X54.4Y-72.04
X54.4Y-74.58
X54.4Y-77.12
X54.4Y-79.66
X71.0Y-108.0
X73.54Y-108.0
X105.92Y-108.5
X107.925Y-54.7
X107.925Y-57.24
X107.925Y-59.78
X107.925Y-62.32
X108.46Y-108.5
X111.0Y-108.5
X122.0Y-81.8
X122.0Y-84.34
X122.0Y-86.88
X122.0Y-89.42
X122.0Y-91.96
X122.0Y-94.5
X122.0Y-97.04
X122.0Y-99.58
X124.54Y-81.8
X127.08Y-81.8
X134.7Y-81.8
X134.7Y-84.34
X134.7Y-86.88
X134.7Y-89.42
X134.7Y-91.96
X134.7Y-94.5
X134.7Y-97.04
X134.7Y-99.58
T1
G00X57.0Y-90.4
M15
G01X57.0Y-92.6
M16
G05
G00X58.7Y-96.3
M15
G01X60.9Y-96.3
M16
G05
G00X62.8Y-90.2
M15
G01X62.8Y-92.8
M16
G05
M30
