%TF.GenerationSoftware,KiCad,Pcbnew,9.0.3*%
%TF.CreationDate,2025-08-14T15:00:20+02:00*%
%TF.ProjectId,Spool_Roller,53706f6f-6c5f-4526-9f6c-6c65722e6b69,rev?*%
%TF.SameCoordinates,Original*%
%TF.FileFunction,Soldermask,Top*%
%TF.FilePolarity,Negative*%
%FSLAX46Y46*%
G04 Gerber Fmt 4.6, Leading zero omitted, Abs format (unit mm)*
G04 Created by KiCad (PCBNEW 9.0.3) date 2025-08-14 15:00:20*
%MOMM*%
%LPD*%
G01*
G04 APERTURE LIST*
G04 Aperture macros list*
%AMRoundRect*
0 Rectangle with rounded corners*
0 $1 Rounding radius*
0 $2 $3 $4 $5 $6 $7 $8 $9 X,Y pos of 4 corners*
0 Add a 4 corners polygon primitive as box body*
4,1,4,$2,$3,$4,$5,$6,$7,$8,$9,$2,$3,0*
0 Add four circle primitives for the rounded corners*
1,1,$1+$1,$2,$3*
1,1,$1+$1,$4,$5*
1,1,$1+$1,$6,$7*
1,1,$1+$1,$8,$9*
0 Add four rect primitives between the rounded corners*
20,1,$1+$1,$2,$3,$4,$5,0*
20,1,$1+$1,$4,$5,$6,$7,0*
20,1,$1+$1,$6,$7,$8,$9,0*
20,1,$1+$1,$8,$9,$2,$3,0*%
G04 Aperture macros list end*
%ADD10R,1.700000X1.700000*%
%ADD11C,1.700000*%
%ADD12R,1.350000X1.350000*%
%ADD13C,1.350000*%
%ADD14R,1.600000X1.600000*%
%ADD15O,1.600000X1.600000*%
%ADD16RoundRect,0.102000X0.754000X0.754000X-0.754000X0.754000X-0.754000X-0.754000X0.754000X-0.754000X0*%
%ADD17C,1.712000*%
%ADD18C,1.500000*%
%ADD19R,1.800000X4.400000*%
%ADD20O,1.800000X4.000000*%
%ADD21O,4.000000X1.800000*%
G04 APERTURE END LIST*
D10*
%TO.C,SH1106_Display1*%
X107925000Y-54700000D03*
D11*
X107925000Y-57240000D03*
X107925000Y-59780000D03*
X107925000Y-62320000D03*
%TD*%
D12*
%TO.C,ROLL1*%
X143000000Y-93000000D03*
D13*
X143000000Y-91000000D03*
X143000000Y-89000000D03*
X143000000Y-87000000D03*
%TD*%
D10*
%TO.C,J3*%
X71000000Y-108000000D03*
D11*
X73540000Y-108000000D03*
%TD*%
D10*
%TO.C,U3*%
X105920000Y-108500000D03*
D11*
X108460000Y-108500000D03*
X111000000Y-108500000D03*
%TD*%
D12*
%TO.C,GUIDE1*%
X143000000Y-65000000D03*
D13*
X143000000Y-63000000D03*
X143000000Y-61000000D03*
X143000000Y-59000000D03*
%TD*%
D14*
%TO.C,A1*%
X134340000Y-70890000D03*
D15*
X134340000Y-68350000D03*
X134340000Y-65810000D03*
X134340000Y-63270000D03*
X134340000Y-60730000D03*
X134340000Y-58190000D03*
X134340000Y-55650000D03*
X134340000Y-53110000D03*
X121640000Y-53110000D03*
X121640000Y-55650000D03*
X121640000Y-58190000D03*
X121640000Y-60730000D03*
X121640000Y-63270000D03*
X121640000Y-65810000D03*
X121640000Y-68350000D03*
X121640000Y-70890000D03*
%TD*%
D16*
%TO.C,U2*%
X134700000Y-99580000D03*
D17*
X134700000Y-97040000D03*
X134700000Y-94500000D03*
X134700000Y-91960000D03*
X134700000Y-89420000D03*
X134700000Y-86880000D03*
X134700000Y-84340000D03*
X134700000Y-81800000D03*
X122000000Y-99580000D03*
X122000000Y-97040000D03*
X122000000Y-94500000D03*
X122000000Y-91960000D03*
X122000000Y-89420000D03*
X122000000Y-86880000D03*
X122000000Y-84340000D03*
X122000000Y-81800000D03*
X127080000Y-81800000D03*
X124540000Y-81800000D03*
%TD*%
D10*
%TO.C,J1*%
X54400000Y-79660000D03*
D11*
X54400000Y-77120000D03*
X54400000Y-74580000D03*
X54400000Y-72040000D03*
X54400000Y-69500000D03*
%TD*%
D18*
%TO.C,U1*%
X72500000Y-91060000D03*
X72500000Y-88520000D03*
X72500000Y-85980000D03*
X72500000Y-83440000D03*
X72500000Y-80900000D03*
X72500000Y-78360000D03*
X72500000Y-75820000D03*
X72500000Y-73280000D03*
X72500000Y-70740000D03*
X72500000Y-68200000D03*
X72500000Y-65660000D03*
X72500000Y-63120000D03*
X72500000Y-60580000D03*
X72500000Y-58040000D03*
X72500000Y-55500000D03*
X97900000Y-91060000D03*
X97900000Y-88520000D03*
X97900000Y-85980000D03*
X97900000Y-83440000D03*
X97900000Y-80900000D03*
X97900000Y-78360000D03*
X97900000Y-75820000D03*
X97900000Y-73280000D03*
X97900000Y-70740000D03*
X97900000Y-68200000D03*
X97900000Y-65660000D03*
X97900000Y-63120000D03*
X97900000Y-60580000D03*
X97900000Y-58040000D03*
X97900000Y-55500000D03*
%TD*%
D19*
%TO.C,J4*%
X62800000Y-91500000D03*
D20*
X57000000Y-91500000D03*
D21*
X59800000Y-96300000D03*
%TD*%
M02*
